<svg width="360" height="380" viewBox="0 0 180 190" fill="none" xmlns="http://www.w3.org/2000/svg">
  
  
  <rect width="180" height="190" fill="#080c18"></rect>

  
  <circle cx="90" cy="72" r="9" fill="#c9a84c" opacity="0.18"></circle>
  
  <circle cx="90" cy="72" r="18" stroke="#c9a84c" stroke-width="2"></circle>

  
  <line x1="90" y1="43" x2="90" y2="36" stroke="#c9a84c" stroke-width="1.8" stroke-linecap="round"></line>
  <line x1="90" y1="101" x2="90" y2="108" stroke="#c9a84c" stroke-width="1.8" stroke-linecap="round"></line>
  <line x1="61" y1="72" x2="54" y2="72" stroke="#c9a84c" stroke-width="1.8" stroke-linecap="round"></line>
  <line x1="119" y1="72" x2="126" y2="72" stroke="#c9a84c" stroke-width="1.8" stroke-linecap="round"></line>
  <line x1="69.5" y1="51.5" x2="64.5" y2="46.5" stroke="#c9a84c" stroke-width="1.8" stroke-linecap="round"></line>
  <line x1="110.5" y1="51.5" x2="115.5" y2="46.5" stroke="#c9a84c" stroke-width="1.8" stroke-linecap="round"></line>
  <line x1="69.5" y1="92.5" x2="64.5" y2="97.5" stroke="#c9a84c" stroke-width="1.8" stroke-linecap="round"></line>
  <line x1="110.5" y1="92.5" x2="115.5" y2="97.5" stroke="#c9a84c" stroke-width="1.8" stroke-linecap="round"></line>

  
  <line x1="32" y1="108" x2="148" y2="108" stroke="#c9a84c" stroke-width="1.4"></line>

  
  <path d="M32 118 Q50 112 68 118 Q86 124 104 118 Q122 112 148 118" stroke="#c9a84c" stroke-width="1.8" fill="none" stroke-linecap="round"></path>
  <path d="M38 128 Q56 122 74 128 Q92 134 110 128 Q128 122 142 128" stroke="#c9a84c" stroke-width="1.3" fill="none" stroke-linecap="round" opacity="0.7"></path>
  <path d="M46 137 Q62 131 78 137 Q94 143 110 137 Q126 131 134 137" stroke="#c9a84c" stroke-width="1" fill="none" stroke-linecap="round" opacity="0.4"></path>

  
  <text x="90" y="156" text-anchor="middle" fill="#c9a84c" font-family="Cormorant Garamond, Playfair Display, Georgia, serif" font-size="14" font-weight="600" letter-spacing="4.5">COSTA BLANCA</text>
  <line x1="52" y1="161" x2="128" y2="161" stroke="#c9a84c" stroke-width="0.7" opacity="0.4"></line>
  <text x="90" y="173" text-anchor="middle" fill="#c9a84c" font-family="DM Sans, Helvetica, sans-serif" font-size="8" font-weight="400" letter-spacing="7" opacity="0.75">TOURS</text>
</svg>